<svg width="36" height="38" viewBox="0 0 36 38" fill="none" xmlns="http://www.w3.org/2000/svg">
<path d="M33 26.79V31.54C33.0017 31.981 32.9161 32.4174 32.7488 32.8215C32.5814 33.2255 32.336 33.5882 32.0281 33.8863C31.7203 34.1844 31.3569 34.4113 30.9611 34.5526C30.5654 34.6939 30.1461 34.7464 29.73 34.7067C25.1143 34.1773 20.6805 32.5124 16.785 29.8458C13.1608 27.4149 10.088 24.1714 7.78502 20.3458C5.24999 16.2152 3.67239 11.5124 3.18002 6.61833C3.14254 6.18049 3.19183 5.7392 3.32477 5.32257C3.45771 4.90594 3.67138 4.52309 3.95217 4.1984C4.23296 3.87371 4.57473 3.61429 4.95571 3.43666C5.33669 3.25903 5.74853 3.16708 6.16502 3.16667H10.665C11.393 3.1591 12.0987 3.43121 12.6507 3.93226C13.2026 4.43331 13.5631 5.12912 13.665 5.89C13.855 7.4101 14.2072 8.90265 14.715 10.3392C14.9168 10.9059 14.9605 11.5218 14.8409 12.1139C14.7212 12.706 14.4433 13.2495 14.04 13.68L12.135 15.6908C14.2704 19.6548 17.3797 22.9369 21.135 25.1908L23.04 23.18C23.4479 22.7543 23.9628 22.4609 24.5237 22.3346C25.0846 22.2084 25.6681 22.2545 26.205 22.4675C27.5659 23.0035 28.9799 23.3753 30.42 23.5758C31.1487 23.6843 31.8141 24.0717 32.2898 24.6644C32.7655 25.257 33.0183 26.0135 33 26.79Z" stroke="#D4AF37" stroke-width="4" stroke-linecap="round" stroke-linejoin="round"/>
</svg>
